<svg xmlns="http://www.w3.org/2000/svg" width="35.156" height="35.156" viewBox="0 0 35.156 35.156"><defs><style>.a{fill:#fff;}.b{fill:#fff;}</style></defs><g transform="translate(-1136.524 -326.567)"><rect class="a" width="4.688" height="1.757" transform="translate(1145.313 329.79)"/><rect class="a" width="20.508" height="1.757" transform="translate(1137.403 333.305)"/><rect class="a" width="6.445" height="1.758" transform="translate(1137.403 345.903)"/><path class="a" d="M172.66,389.311h-2.637a7.919,7.919,0,0,1-7.91-7.91V362.065a7.919,7.919,0,0,1,7.91-7.91h6.445a7.919,7.919,0,0,1,7.911,7.91V369.1h-1.758v-7.031a6.16,6.16,0,0,0-6.153-6.153h-6.445a6.16,6.16,0,0,0-6.153,6.153V381.4a6.161,6.161,0,0,0,6.153,6.153h2.637Z" transform="translate(974.411 -27.588)"/><path class="a" d="M168.137,383.66a1.172,1.172,0,1,1-1.172-1.172,1.172,1.172,0,0,1,1.172,1.172" transform="translate(973.661 -33.363)"/><path class="a" d="M168.137,388.076a1.172,1.172,0,1,1-1.172-1.172,1.172,1.172,0,0,1,1.172,1.172" transform="translate(973.661 -34.263)"/><path class="a" d="M174.6,374.311a2.673,2.673,0,0,0-2.637,2.637v11.719A2.672,2.672,0,0,0,174.6,391.3h19.922a2.671,2.671,0,0,0,2.637-2.636V376.948a2.672,2.672,0,0,0-2.637-2.637Zm19.922,18.75H174.6a4.454,4.454,0,0,1-4.395-4.394V376.948a4.453,4.453,0,0,1,4.395-4.394h19.922a4.453,4.453,0,0,1,4.394,4.394v11.719a4.454,4.454,0,0,1-4.394,4.394" transform="translate(972.761 -31.338)"/><rect class="a" width="11.719" height="1.757" transform="translate(1147.071 353.227)"/><line class="b" x1="26.807" transform="translate(1143.995 345.903)"/><rect class="a" width="26.807" height="1.757" transform="translate(1143.995 345.024)"/><line class="b" x1="26.807" transform="translate(1143.995 347.661)"/><rect class="a" width="26.807" height="1.758" transform="translate(1143.995 346.782)"/><line class="b" x1="26.807" transform="translate(1143.995 349.418)"/><rect class="a" width="26.807" height="1.757" transform="translate(1143.995 348.54)"/></g></svg>