<svg xmlns="http://www.w3.org/2000/svg" width="35.062" height="34.74" viewBox="0 0 35.062 34.74"><defs><style>.a{fill:#fff;}</style></defs><g transform="translate(-1345.636 -330.983)"><rect class="a" width="17.049" height="1.93" transform="translate(1346.602 341.92)"/><rect class="a" width="17.049" height="1.93" transform="translate(1346.602 352.213)"/><path class="a" d="M377.478,387.455a1.287,1.287,0,1,1-1.287-1.287,1.288,1.288,0,0,1,1.287,1.287" transform="translate(973.948 -31.06)"/><path class="a" d="M384.838,387.455a1.287,1.287,0,1,1-1.287-1.287,1.287,1.287,0,0,1,1.287,1.287" transform="translate(973.022 -31.06)"/><path class="a" d="M381.157,387.455a1.287,1.287,0,1,1-1.286-1.287,1.287,1.287,0,0,1,1.286,1.287" transform="translate(973.485 -31.06)"/><path class="a" d="M388.518,387.455a1.287,1.287,0,1,1-1.287-1.287,1.288,1.288,0,0,1,1.287,1.287" transform="translate(972.559 -31.06)"/><path class="a" d="M377.478,391.871a1.287,1.287,0,1,1-1.287-1.287,1.288,1.288,0,0,1,1.287,1.287" transform="translate(973.948 -31.616)"/><path class="a" d="M384.838,391.871a1.287,1.287,0,1,1-1.287-1.287,1.287,1.287,0,0,1,1.287,1.287" transform="translate(973.022 -31.616)"/><path class="a" d="M381.157,391.871a1.287,1.287,0,1,1-1.286-1.287,1.287,1.287,0,0,1,1.286,1.287" transform="translate(973.485 -31.616)"/><path class="a" d="M388.518,391.871a1.287,1.287,0,1,1-1.287-1.287,1.288,1.288,0,0,1,1.287,1.287" transform="translate(972.559 -31.616)"/><path class="a" d="M399.925,391.871a1.287,1.287,0,1,1-1.287-1.287,1.287,1.287,0,0,1,1.287,1.287" transform="translate(971.124 -31.616)"/><path class="a" d="M383.449,394.1h-5.468a6.762,6.762,0,0,1-6.756-6.755V371.419a6.687,6.687,0,0,1,2.059-4.833,6.363,6.363,0,0,1,4.72-1.761h5.423a6.378,6.378,0,0,1,4.72,1.761,6.69,6.69,0,0,1,2.058,4.833v2.734h-1.93v-2.734a4.752,4.752,0,0,0-1.457-3.435,4.454,4.454,0,0,0-3.319-1.231h-5.565a4.456,4.456,0,0,0-3.318,1.231,4.749,4.749,0,0,0-1.457,3.435v15.923a4.829,4.829,0,0,0,4.825,4.825h5.468a4.83,4.83,0,0,0,4.825-4.825v-8.685h1.93v8.685a6.762,6.762,0,0,1-6.755,6.755" transform="translate(974.411 -28.374)"/><path class="a" d="M397.221,383.341l-1.366-1.365,4.777-4.776-4.776-4.777,1.365-1.365,6.141,6.142Z" transform="translate(971.312 -29.159)"/><rect class="a" width="14.476" height="1.93" transform="translate(1358.503 347.066)"/><path class="a" d="M399.531,393.311h-4.5a8.66,8.66,0,0,1-5.89-2.3l1.31-1.418a6.737,6.737,0,0,0,4.581,1.79h4.5a6.763,6.763,0,0,0,6.755-6.756V367.255a6.762,6.762,0,0,0-6.755-6.755h-4.5a6.8,6.8,0,0,0-6.592,5.274l-1.883-.421a8.738,8.738,0,0,1,8.475-6.783h4.5a8.694,8.694,0,0,1,8.685,8.684v17.371a8.7,8.7,0,0,1-8.685,8.685" transform="translate(972.483 -27.588)"/></g></svg>