<?xml version="1.0" encoding="utf-8"?>
<svg x="200pt" y="100pt" width="400pt" height="400pt" viewBox="200 100 400 400" xmlns="http://www.w3.org/2000/svg" xmlns:xlink="http://www.w3.org/1999/xlink">
  <g id="1">
    <title>Layer 1</title>
    <linearGradient x1="271.3" y1="158.682" x2="528.692" y2="441.356" gradientUnits="userSpaceOnUse" id="4">
      <stop style="stop-color:#ffff00;stop-opacity:1;"/>
      <stop offset="0.500645" style="stop-color:#fe8c00;stop-opacity:1;"/>
      <stop offset="1" style="stop-color:#ff6d00;stop-opacity:1;"/>
    </linearGradient>
    <defs>
      <title>Path</title>
      <g id="2">
        <defs>
          <path id="3" d="M339.006,115.918 C339.006,115.918,301.999,125.435,261.53,166.301 C229.401,198.745,210.463,241.685,215.552,298.521 C219.16,338.811,235.304,385.424,265.716,420.901 C296.128,456.379,350.594,488.023,411.866,495.198 C493.897,504.805,520.676,459.133,521.444,427.635 C522.213,396.137,527.613,348.181,540.3,319.014 C546.843,303.971,550.099,295.926,561.374,276.482 C571.363,259.257,595.728,221.387,580.238,185.368 C556.44,130.029,476.868,100.586,416.365,103.773 C361.551,106.66,339.006,115.918,339.006,115.918 z"/>
        </defs>
        <use xlink:href="#3" style="fill:#aaaaaa;fill-opacity:1;fill-rule:nonzero;opacity:1;stroke:none;"/>
        <use xlink:href="#3" style="fill:url(#4);fill-opacity:1;fill-rule:nonzero;opacity:1;stroke:none;"/>
      </g>
    </defs>
    <use xlink:href="#2"/>
    <defs>
      <title>CompoundGroup</title>
      <g id="5">
        <defs>
          <path id="6" d="M465.038,229.88 C474.51,229.88,482.19,237.559,482.19,247.032 C482.19,256.505,474.51,264.184,465.038,264.184 C455.565,264.184,447.885,256.505,447.885,247.032 C447.885,237.559,455.565,229.88,465.038,229.88 z M465.296,275.591 C465.296,275.591,457.031,274.599,451.397,294.487 C446.292,312.503,447.171,323.353,447.171,339.511 C447.171,355.669,455.734,382.179,465.296,383.008 C474.859,383.837,482.014,358.079,482.736,339.895 C483.409,322.937,482.734,305.872,478.514,292.57 C472.871,274.778,465.296,275.591,465.296,275.591 z M386.84,275.583 C414.144,275.583,436.278,299.339,436.278,328.644 C436.278,357.949,414.144,381.706,386.84,381.706 C359.536,381.706,337.402,357.949,337.402,328.644 C337.402,299.339,359.536,275.583,386.84,275.583 z M386.84,300.598 C398.466,300.598,407.89,313.155,407.89,328.644 C407.89,344.134,398.466,356.691,386.84,356.691 C375.214,356.691,365.79,344.134,365.79,328.644 C365.79,313.155,375.214,300.598,386.84,300.598 z"/>
        </defs>
        <use xlink:href="#6" style="fill:#ffffff;fill-opacity:1;fill-rule:evenodd;opacity:1;stroke:none;"/>
      </g>
    </defs>
    <use xlink:href="#5"/>
  </g>
</svg>
