<svg xmlns="http://www.w3.org/2000/svg" width="52.345" height="44.712" viewBox="0 0 52.345 44.712"><defs><style>.a{fill:#ff6d00;}</style></defs><g transform="translate(-291 -124.792)"><g transform="translate(291 124.792)"><path class="a" d="M451.128,506.083l-4.525-4.446h-4.339V488.35h2.417v10.872h2.91l3.536,3.473,3.527-3.473h11.77v-19.73H447.1v-2.416H468.84v24.562h-13.2Z" transform="translate(-416.494 -461.371)"/><path class="a" d="M455.976,484.231a2.825,2.825,0,1,0,2.827,2.825,2.829,2.829,0,0,0-2.827-2.825m0,8.065a5.24,5.24,0,1,1,5.243-5.24,5.246,5.246,0,0,1-5.243,5.24" transform="translate(-416.694 -461.483)"/><path class="a" d="M450.407,495.1h11.01a2.828,2.828,0,0,0-2.817-2.61h-5.376a2.828,2.828,0,0,0-2.817,2.61m13.434,2.416H447.985v-2.2a5.244,5.244,0,0,1,5.239-5.239H458.6a5.246,5.246,0,0,1,5.241,5.239Z" transform="translate(-416.629 -461.678)"/><path class="a" d="M418.287,486.765l11.72.028,4.3,4.289,4.292-4.289,6.672-.026v-23.36H418.287ZM434.3,494.5l-5.3-5.292-13.133-.03V460.991h31.811v28.181l-8.083.032Z" transform="translate(-415.871 -460.991)"/><path class="a" d="M432.17,467.941a3.812,3.812,0,1,0,3.814,3.812,3.816,3.816,0,0,0-3.814-3.812m0,10.039a6.228,6.228,0,1,1,6.229-6.227,6.234,6.234,0,0,1-6.229,6.227" transform="translate(-416.109 -461.098)"/><path class="a" d="M424.932,482.064h14.316v-.029a3.816,3.816,0,0,0-3.811-3.812h-6.693a3.816,3.816,0,0,0-3.812,3.812Zm16.732,2.416H422.516v-2.445a6.234,6.234,0,0,1,6.227-6.227h6.693a6.235,6.235,0,0,1,6.227,6.227Z" transform="translate(-416.028 -461.341)"/></g></g></svg>