<svg xmlns="http://www.w3.org/2000/svg" width="32.304" height="34.612" viewBox="0 0 32.304 34.612"><defs><style>.a{fill:#fff;}</style></defs><g transform="translate(-474.134 -399.567)"><rect class="a" width="4.615" height="1.73" transform="translate(482.787 402.74)"/><rect class="a" width="20.191" height="1.73" transform="translate(474.999 406.201)"/><rect class="a" width="10.384" height="1.731" transform="translate(474.999 418.603)"/><path class="a" d="M237.71,383.642a1.154,1.154,0,1,1-1.154-1.154,1.154,1.154,0,0,1,1.154,1.154" transform="translate(241.616 39.288)"/><path class="a" d="M242.126,383.642a1.154,1.154,0,1,1-1.154-1.154,1.153,1.153,0,0,1,1.154,1.154" transform="translate(240.661 39.288)"/><path class="a" d="M237.71,388.058a1.154,1.154,0,1,1-1.154-1.154,1.154,1.154,0,0,1,1.154,1.154" transform="translate(241.616 38.333)"/><path class="a" d="M242.126,388.058a1.154,1.154,0,1,1-1.154-1.154,1.154,1.154,0,0,1,1.154,1.154" transform="translate(240.661 38.333)"/><path class="a" d="M242.126,392.474a1.154,1.154,0,1,1-1.154-1.154,1.153,1.153,0,0,1,1.154,1.154" transform="translate(240.661 37.379)"/><path class="a" d="M246.542,392.474a1.154,1.154,0,1,1-1.154-1.154,1.153,1.153,0,0,1,1.154,1.154" transform="translate(239.707 37.379)"/><path class="a" d="M245.857,388.767h-6.345a7.8,7.8,0,0,1-7.788-7.788V361.943a7.8,7.8,0,0,1,7.788-7.788h6.344a7.8,7.8,0,0,1,7.788,7.788v5.192h-1.731v-5.192a6.064,6.064,0,0,0-6.057-6.058h-6.345a6.064,6.064,0,0,0-6.057,6.058v19.037a6.065,6.065,0,0,0,6.057,6.058h6.345a5.99,5.99,0,0,0,2.707-.637l.775,1.547a7.7,7.7,0,0,1-3.482.82" transform="translate(242.411 45.412)"/><path class="a" d="M255.483,371.34A9.518,9.518,0,1,0,265,380.858a9.53,9.53,0,0,0-9.518-9.518m0,20.767a11.249,11.249,0,1,1,11.248-11.249,11.261,11.261,0,0,1-11.248,11.249" transform="translate(239.707 42.071)"/><path class="a" d="M253.705,384.338h1.7a2.193,2.193,0,0,0,2.352,1.884c1.122,0,1.837-.545,1.837-1.387,0-.81-.451-1.307-1.541-1.573l-1.932-.466a2.9,2.9,0,0,1-2.243-3.053c0-2.1,1.589-3.084,3.521-3.084a3.432,3.432,0,0,1,3.722,3.069h-1.7a1.887,1.887,0,0,0-2.009-1.416c-1.293,0-1.839.607-1.839,1.432a1.413,1.413,0,0,0,1.231,1.449l1.869.451a3.039,3.039,0,0,1,2.616,3.225c0,1.761-1.293,3.006-3.567,3.006a3.684,3.684,0,0,1-4.019-3.535" transform="translate(237.66 40.548)"/><rect class="a" width="1.73" height="1.875" transform="translate(494.326 415.719)"/><rect class="a" width="1.73" height="1.875" transform="translate(494.326 427.977)"/></g></svg>